<?xml version="1.0" encoding="UTF-8"?><svg id="Capa_1" xmlns="http://www.w3.org/2000/svg" viewBox="0 0 35.89 24.91"><defs><style>.cls-1,.cls-2{fill:#353331;}.cls-2{stroke:#353331;stroke-linecap:square;stroke-miterlimit:10;stroke-width:.99px;}.cls-3{fill:#565452;}</style></defs><path class="cls-2" d="M17.95,17.07C19.44,11.76,31.07.5,23.95.5h11.94c-9.9,0-17.88,22.72-17.95,22.92h0S9.94.5,0,.5h11.94c-7.12,0,4.51,11.26,6.01,16.58"/><path class="cls-1" d="M17.95,14.12c-.85-1.52-2-3.2-3.12-4.83-1.56-2.28-4.43-6.47-3.95-7.38,0,0,.17-.21,1.06-.21h.71v-.99h10.6v.99h.71c.87,0,1.05.2,1.05.2.49.92-2.38,5.11-3.92,7.36-1.14,1.66-2.29,3.34-3.14,4.87Z"/><path class="cls-3" d="M22.54,1.41v.99h1.41c.14,0,.26,0,.35.02-.3,1.33-2.55,4.61-3.82,6.47-.88,1.28-1.77,2.59-2.54,3.84-.76-1.25-1.66-2.57-2.55-3.86-1.26-1.83-3.5-5.11-3.81-6.44.09,0,.21-.02.36-.02h1.41v-.99h9.19M23.96,0h-12.01v.99c-.92,0-1.48.2-1.69.59-.68,1.29,1.79,4.91,3.97,8.09,1.43,2.09,2.9,4.23,3.71,6.01.81-1.78,2.28-3.92,3.71-6.01,2.18-3.18,4.66-6.8,3.97-8.09-.2-.39-.77-.59-1.68-.59v-.99h0Z"/></svg>