<?xml version="1.0" encoding="utf-8"?>
<!-- Generator: Adobe Illustrator 28.1.0, SVG Export Plug-In . SVG Version: 6.00 Build 0)  -->
<svg version="1.1" id="Capa_2_00000039835620166777808580000005607332554890851511_"
	 xmlns="http://www.w3.org/2000/svg" xmlns:xlink="http://www.w3.org/1999/xlink" x="0px" y="0px" viewBox="0 0 11934.7 11934.7"
	 style="enable-background:new 0 0 11934.7 11934.7;" xml:space="preserve">
<style type="text/css">
	.st0{fill:#353331;}
</style>
<g id="Capa_1-2">
	<path class="st0" d="M5967.4,3276.4c221.4,399.6,451.4,767.6,664.1,1086.7c250.1,373.7,566.4,690,940.1,940.1
		c319.1,212.7,687.1,442.7,1086.7,664.1c-399.6,221.4-767.6,451.4-1086.7,664.1c-373.7,250.1-690,566.4-940.1,940.1
		c-212.7,319.1-442.7,687.1-664.1,1086.7c-221.4-399.6-451.4-767.6-664.1-1086.7c-250.1-373.7-566.4-690-940.1-940.1
		c-319.1-212.7-687.1-442.7-1086.7-664.1C3676,5746,4044,5516,4363.1,5303.2c373.7-250.1,690-566.4,940.1-940.1
		C5516,4044,5746,3676,5967.4,3276.4 M5967.4,4.7c-158.1,1152.9-799.2,2489.7-1621.5,3720.2c-163.9,247.2-376.6,457.1-621,621
		C2494.4,5168.1,1157.5,5806.4,4.7,5967.4c1152.9,158.1,2489.7,799.2,3720.2,1621.5c247.2,163.9,457.1,376.6,621,621
		c822.2,1230.5,1460.5,2567.4,1621.5,3720.2c158.1-1152.9,799.2-2489.7,1621.5-3720.2c163.9-247.2,376.6-457.1,621-621
		c1230.5-822.2,2567.4-1460.5,3720.2-1621.5c-1152.9-158.1-2489.7-799.2-3720.2-1621.5c-247.2-163.9-457.1-376.6-621-621
		C6766.6,2494.4,6128.4,1157.5,5967.4,4.7C5967.4,4.7,5967.4,4.7,5967.4,4.7z"/>
</g>
</svg>
