<?xml version="1.0" encoding="utf-8"?>
<!-- Generator: Adobe Illustrator 28.1.0, SVG Export Plug-In . SVG Version: 6.00 Build 0)  -->
<svg version="1.1" id="Capa_2_00000053533120158594883150000006015200434331158181_"
	 xmlns="http://www.w3.org/2000/svg" xmlns:xlink="http://www.w3.org/1999/xlink" x="0px" y="0px" viewBox="0 0 1920 45"
	 style="enable-background:new 0 0 1920 45;" xml:space="preserve">
<style type="text/css">
	.st0{fill:none;}
	.st1{fill:#121212;}
	.st2{fill:#F3E6D7;}
	.st3{fill:#F1E2D1;}
</style>
<g>
	<path class="st0" d="M0.2,22.2c0.3,0.3,0.8,0.4,0.7,0.6C1.6,22.4,0.7,22.1,0.2,22.2z"/>
	<path class="st0" d="M1922.1,22.2c-0.7,0.4,0.2,0.7,0.7,0.6C1922.5,22.6,1922,22.4,1922.1,22.2z"/>
	<g>
		<path class="st1" d="M1741.3,22.4c0.2,0.1,0.3,0.1,0.5,0.1C1741.8,22.6,1741.3,22.4,1741.3,22.4z"/>
	</g>
	<g>
		<path class="st1" d="M1920.8,22.5c-0.2,0-0.4,0.1-0.5,0.1C1920.4,22.5,1920.6,22.5,1920.8,22.5z"/>
	</g>
	<g>
		<path class="st1" d="M2.2,22.5c0.2,0,0.4-0.1,0.5-0.1C2.6,22.5,2.4,22.5,2.2,22.5z"/>
	</g>
	<g>
		<path class="st1" d="M1221.2,22.5c0.3,0,0.8,0,1.3-0.1C1221.9,22.5,1221.5,22.5,1221.2,22.5z"/>
	</g>
	<g>
		<path class="st1" d="M1216.3,22.7c1-0.2,2.6-0.4,0.3-0.4C1216.4,22.4,1216.3,22.6,1216.3,22.7z"/>
	</g>
	<g>
		<path class="st1" d="M1918.5,22.3c-0.1,0.1-0.1,0.3-0.1,0.4C1918.7,22.5,1919.4,22.3,1918.5,22.3z"/>
	</g>
	<g>
		<path class="st1" d="M1227.9,22.8c-0.8-0.3-2.1-0.4-1.8-0.6C1224.2,22.9,1227.4,22.8,1227.9,22.8z"/>
	</g>
	<g>
		<path class="st1" d="M4.5,22.7c0.1-0.1,0.1-0.3,0.1-0.4C4.3,22.5,3.6,22.7,4.5,22.7z"/>
	</g>
	<g>
		<g>
			<path class="st1" d="M706.7,25.7c-1,0.2-2.6,0.4-0.3,0.4C706.6,26.1,706.6,25.9,706.7,25.7z"/>
		</g>
		<g>
			<path class="st1" d="M181.7,18.8c-0.2-0.1-0.3-0.1-0.5-0.1C181.2,18.6,181.7,18.8,181.7,18.8z"/>
		</g>
		<g>
			<path class="st1" d="M696.9,20.7c1.9-0.7-1.3-0.6-1.8-0.6C695.9,20.3,697.2,20.5,696.9,20.7z"/>
		</g>
		<g>
			<path class="st1" d="M700.4,20c0.7,0,1-0.1,1.3-0.1C701.5,20,700.9,20,700.4,20z"/>
		</g>
		<path class="st2" d="M118.3,19.4c0.2-1.4,1.6-3-0.9-1.7C117.1,18.3,117.3,19.7,118.3,19.4z"/>
		<path class="st2" d="M124.4,20.5c-0.3,3.4,2.7-1.6,1.7-3.6c-0.9,1.3-3.8,6.2-4.4,2.3C117.3,19.4,122.2,23.3,124.4,20.5z"/>
		<path class="st2" d="M223.8,24.7c0.2,0.1,0.4,0.2,0.6,0.2L223.8,24.7z"/>
		<path class="st2" d="M286.5,25.3c-0.5,0-0.7,0.2-0.7,0.3C286.2,25.6,286.6,25.5,286.5,25.3z"/>
		<path class="st2" d="M297.1,26.9c-0.2,0-0.4-0.1-0.6-0.1C296.7,26.9,296.9,27,297.1,26.9z"/>
		<path class="st2" d="M224.5,24.9l1.7,0.5C226.2,24.8,225.3,25,224.5,24.9z"/>
		<path class="st2" d="M138.2,16.7c-0.3,0.1-0.6,0.3-0.9,0.6C137.6,17.1,138.2,17.2,138.2,16.7z"/>
		<path class="st2" d="M196.2,27.4l0.9-0.8C196.6,26.5,196.4,26.9,196.2,27.4z"/>
		<path class="st2" d="M176.1,27.1c0.3,0.3,0.9-1.9,0.6-2C176.3,26,175.6,25.9,176.1,27.1z"/>
		<path class="st2" d="M142.9,24.3l-0.6,0.3C142.4,24.5,142.7,24.4,142.9,24.3z"/>
		<path class="st2" d="M212.1,26.8c0,0.2,0.1,0.4,0.2,0.6C212.3,27.1,212.3,27,212.1,26.8z"/>
		<path class="st2" d="M799,17.3c0,0.1,0,0.1,0,0.2C799.1,17.4,799.1,17.3,799,17.3z"/>
		<path class="st2" d="M823.3,22.7c-0.4,0-0.4,0.4-0.4,0.7L823.3,22.7z"/>
		<path class="st2" d="M316.4,28.2c0,0-0.1,0-0.1,0C315.9,28.3,316.1,28.3,316.4,28.2z"/>
		<path class="st2" d="M494.3,25.5c-1.9-0.6,2.8-0.9,0.6-1.5C494.6,23.9,492,25.2,494.3,25.5z"/>
		<path class="st2" d="M138.7,17c0.3,0,0.6,0,0.9,0C139.2,16.9,138.9,16.9,138.7,17z"/>
		<path class="st2" d="M360.6,26.4c0,0.1,0.1,0.2,0.5,0.5C361,26.7,360.8,26.6,360.6,26.4z"/>
		<path class="st2" d="M327.8,25.7l0.8,0.1C328.3,25.7,328.1,25.7,327.8,25.7z"/>
		<path class="st2" d="M378.7,25.3c-0.1,0-0.2,0-0.3-0.1C378.4,25.3,378.5,25.3,378.7,25.3z"/>
		<path class="st2" d="M378.7,25.3c0.4,0.1,0.9,0.1,0.7-0.1C379.2,25.3,379,25.4,378.7,25.3z"/>
		<path class="st2" d="M378.7,25.3C378.7,25.3,378.7,25.3,378.7,25.3C378.7,25.3,378.7,25.3,378.7,25.3z"/>
		<path class="st2" d="M395.4,25l0.9,0.1C396.1,24.9,395.8,24.9,395.4,25z"/>
		<path class="st2" d="M744.3,18.4c0.4,0.3,0.6,0.6,0.8,0.9C744.9,18.5,747.5,18.3,744.3,18.4z"/>
		<path class="st2" d="M138.2,17.8c0.1-0.5,0.3-0.7,0.5-0.8C138.2,16.9,137.9,17.3,138.2,17.8z"/>
		<path class="st2" d="M379.1,17.3l2.9,0.2C381.2,17.4,380.1,17.4,379.1,17.3z"/>
		<path class="st2" d="M616,19.1c-0.3,0-0.5,0-0.7,0.1L616,19.1z"/>
		<path class="st2" d="M392.4,18c0,0-1.9-0.4-1.9-0.4C391,17.8,391.9,18.5,392.4,18z"/>
		<path class="st2" d="M774.5,17c-0.1,0.2-0.2,0.4-0.3,0.5C774.4,17.4,774.6,17.2,774.5,17z"/>
		<path class="st2" d="M581.1,19.8C581.2,19.8,581.2,19.8,581.1,19.8C581.2,19.8,581.2,19.8,581.1,19.8z"/>
		<path class="st2" d="M171.4,21.4c-0.2,0.1-0.4,0.3-0.6,0.5C171.1,21.7,171.3,21.6,171.4,21.4z"/>
		<path class="st2" d="M309.5,28.7c-0.2,0-0.4,0.1-0.5,0.2L309.5,28.7z"/>
		<path class="st2" d="M133.7,17.2c-1.9,0.3-8.3,2-4.6,3.5c-2.2-3.9,5.8-1.6,1.5-0.2c1.1,5.2,10.4-4.9,6.8,2.4
			c1.3-2,5.1-2.8,2.4,0.4c1.4,1.4,3.1-1.3,3.2,1l1.8-0.8c-2,4.7,5.9-1,5.5,1.7c4.6-0.9,0.4-2,3.9-4.3c3.3,8.1,1.7,0.9,4,3.8
			c-0.5-2.1,7.2-2.4,7.5,0.1c0.8-1.4-2.2-1.1,0.3-2.1c0.7,3.2,2.8-0.6,4.9,0.9c-0.6,1.7-2.6,0.8-0.5,2.3c5.6-1.4,12.8-2.4,20.7,0.6
			c0.4-2.7,8.6-2.8,3.8,0.1c4.4-0.4,5.4-0.7,12.2-0.6c-2.7-4,2.8-7.2,0.2-2.5c1.9-1,1.6,0,0.3,1c1.5,0.6,0.8-1.1,2-1
			c0.7,1.9,1.2,1.4-0.8,1.6c3.7,2.2,4.5-1.7,6.9,1.9c1.6-2.7,40.4-3.8,33.5-1.3c2.6,0.4,3.1,1.2,5.9-0.2c-1.4,1.8,6.1,1.8,1.4,0.3
			c1.4-0.2,2.6-0.1,3.8,0c-0.8,5.9,10.3-2.5,12.8,1.4c1.4-1.1-2.8-0.8-1.6-2.1c7.6,3.8,8.9,2.2,13.9-1.9c3.3,0.1,2.4,3.8,0.6,2.4
			c-3.8,1.9,12.5,1.3,15.4-1.1c0.5,1.8,5.7,0.9,2.2,3c7.9-1.2,6.4,3.5,9.9-2.2c1.2,0.5,3.6-0.6,4.1,0.8c-3.8-0.4,0.4,1.3-2.8,1.6
			c7.7,0.7,9.9-2.5,15.2-3.3c-2.7,1.1,6.6-0.1,7,2.7c6.8,0.7,9.2-2.2,2.3-0.8c5.8-2.8-0.9,0.5-0.2-2.3c2.1,1.4,4.1-0.9,6.5,0.1
			c-0.6,5.7,6.6,0.5,11,1.6c-3.8-2.7,6.6,2.1,8.2-0.9c2.4,2.9,13.6-3.6,8.1,0.9c2.5-0.3,10.1-0.9,9.7-2.6c8,3.4,27.2-1,26.4,1.1
			c7.6,2.8,20.8-1.2,25.1-1.3c4.1,3.6,14.6,0.6,25.8,0.2c-5.8,1.6-8.1,2.5-0.8,1.1c63.9,1.2,148.5,2.6,219.2,0.5
			c7.9-0.9,13.1-0.8,19.9,0.2c-9-0.2-2.9-0.2-4.9,1.9c4.2-3.6,15.1,1.9,15.9-2c-10.4,0.8,3.6-2.8,6.1,1.1c32-3.9,77.3,0.5,108.1-1.9
			c-4.9-0.2,4.9-3.9-2.8-6.6c-4.5,2.7-1.7-2.6-8.7,1.5c-0.3-0.7,1.3-1.5-0.6-1.8c-1.3,0.8,1.3,1.6-0.9,2.2c-8-2.1-19.6-1.9-29.1-0.8
			c1.4-3.6-11.2,4.8-6.8-1.1c-0.9,0.7-3.4,0.8-2.8,1.6c-2.9-1.6-2.1-1-5.3-0.2c-1.8-1.5-5.6-1-2.2-2.2c-2.7,0.5-2.4,4.7-4.5,0.5
			c-4.9,1.9-9.2,1.4-14.3,2.1c2.3,2.4-4.5,2.7-1.2,1.1c0,0-1.3,0.4-1.3,0.4c-1.2-1.2,1.7-0.4,1.7-1.3c-17.5-2.2-81.2,1.4-128.4-0.4
			c-77.8-0.4-232.2,0.3-296.1-1.4c-4.5-0.1-19.1,5.1-24.9-0.1c-3,1.5-9.4,3-6.1,1.2c-0.9,0.3-7.5-0.2-1.8,1
			c-2.3,0.9,0.2,2.2-2.8,1.7c0.6-0.2-2.3,0-3.4-1.1c-6.2,3.3-1.1-3.9-10.6,0.3c1.8-3.2-2,1.5-1.6-1.6c-6.9,2.8-12.9-1.9-26,0.6
			c2.7,2.6-3.2-0.7-5.1,0.1c1.7-3.3-7.2-0.1-11.1,0.3c1.9-1.5-9-2.5-7.7,0.2c-6.2-4.3-12.1,2.2-18.1-1.4c4.2-1.3-3.6,0-3.8,0
			c2.9,4.2-0.4,3.2-2.5,0.3c0.2,0.4-0.2,0.9-0.1,1.3c-2.6-2.4-0.4,2.7-3.9,1.1c0.8-2-7,3.1-2.3-1.6c-2,0.1-3.9,3-5.7,1.4
			c6.1-1.5-2.1-3-3.9-3.4c1.8,4.1-5.2,1.6-7.5,4c3.9-3.1-2.7-6.5-5.9-4.1c-0.1-0.5-1.1-0.3-1.3-0.9c-0.2,4.6-6.5-1.8-11.7,1.4
			c-15,9-2.6-1-12.6,2c0.2-4.3-5.6,3.4-2.1-3C135.1,18.3,129.1,21.2,133.7,17.2z M706.7,25.7c-0.1,0.2-0.2,0.3-0.3,0.4
			C704.2,26.1,705.7,26,706.7,25.7z M701.7,20c-0.3,0-0.7,0-1.3,0.1C700.9,20,701.5,20,701.7,20z M696.9,20.7c0.3-0.2-1-0.4-1.8-0.6
			C695.5,20,698.8,20,696.9,20.7z"/>
		<path class="st2" d="M322.7,27.6c0.1,0.1,0.3,0.2,0.6,0.3C323.1,27.8,322.9,27.7,322.7,27.6z"/>
		<path class="st2" d="M581.1,19.8c-0.1-0.1-0.2-0.3-0.3-0.5C580.3,19.6,580.9,19.6,581.1,19.8z"/>
		<path class="st2" d="M163.6,16.2c-0.1,0.3-0.1,0.5,0,0.7C163.7,16.7,163.7,16.5,163.6,16.2z"/>
		<path class="st2" d="M709,24.9C709,24.9,709,24.9,709,24.9C709.1,24.9,709.1,24.9,709,24.9z"/>
		<path class="st2" d="M176.8,25.1c0.2-0.1,0.1-0.2,0.2-0.4C176.9,24.9,176.9,25,176.8,25.1z"/>
		<path class="st2" d="M316.4,28.2C316.2,28.2,316.4,28.2,316.4,28.2C316.4,28.2,316.4,28.2,316.4,28.2z"/>
		<path class="st2" d="M494.6,24C494.9,24,495,24,494.6,24C494.6,23.9,494.6,23.9,494.6,24z"/>
		<path class="st2" d="M494.6,23.9c0,0-0.3-0.1-0.3-0.1C494.4,23.8,494.5,23.9,494.6,23.9z"/>
		<path class="st2" d="M707.9,25c0.1,0,0.2-0.1,0.3-0.1C707.8,24.6,707.1,25.1,707.9,25z"/>
		<path class="st2" d="M223.8,24.7c-0.1-0.1-0.2-0.1-0.2-0.2C223.7,24.6,223.7,24.7,223.8,24.7z"/>
		<path class="st2" d="M621.8,18.8l-0.5,0C621.2,19.2,621.7,18.8,621.8,18.8z"/>
		<path class="st2" d="M193.9,18.8c0,0.1,0.2,0.3,0.4,0.4C194.2,19.1,194.1,18.9,193.9,18.8z"/>
		<path class="st2" d="M181.6,18.7l-1.8-0.6C180.5,18.4,181,18.6,181.6,18.7z"/>
		<path class="st2" d="M181.2,18.6C181.2,18.6,181.2,18.6,181.2,18.6L181.2,18.6z"/>
		<path class="st2" d="M171.6,18.5l0.2-0.7C171.7,18.1,171.6,18.3,171.6,18.5z"/>
		<path class="st2" d="M327.2,17.9c0.1,0,0.3,0,0.4,0C328.4,17.6,327.8,17.7,327.2,17.9z"/>
		<path class="st2" d="M280.9,20.4c0.5-0.2,1-0.5,1.5-0.6C281.6,19.7,281,19.7,280.9,20.4z"/>
		<path class="st2" d="M379.1,17.3l-0.3,0C378.8,17.4,379,17.3,379.1,17.3z"/>
		<path class="st2" d="M284.6,19.8c-0.8-0.3-1.5-0.2-2.1,0C283.1,19.9,283.9,20,284.6,19.8z"/>
		<path class="st2" d="M128.9,16.6c0,0,0.5-0.2,0.5-0.2C129.2,16.4,129,16.3,128.9,16.6z"/>
		<path class="st2" d="M128.9,16.6l-0.5,0.2C128.7,16.9,128.9,16.9,128.9,16.6z"/>
		<path class="st2" d="M127.3,17.3l1.1-0.5C128,16.9,127.6,16.8,127.3,17.3z"/>
		<path class="st2" d="M142.4,17.5l0.1-0.7C142.5,16.9,142.4,17.2,142.4,17.5z"/>
		<path class="st2" d="M146.3,17.3c-0.8,0-3.4-2.2-3.8-0.5C143.2,15.8,145.4,18.4,146.3,17.3z"/>
		<path class="st2" d="M159.3,26.7c4.2,2-0.9-1.5,3.5-1.3l-3.3-0.5C160,25.6,160.8,26.5,159.3,26.7z"/>
		<path class="st2" d="M172.9,26.3c-1.8,0.3,0,1-0.1,1.3C174,27,174.3,26.9,172.9,26.3z"/>
		<path class="st2" d="M246.8,25.6l-0.2,1.3C247.9,26.7,246.6,26.4,246.8,25.6z"/>
		<path class="st2" d="M258.9,19.4c0,0,2-0.4,2-0.4C259.9,18.4,259.3,18.1,258.9,19.4z"/>
		<path class="st2" d="M268.6,28.1l2.3-0.5C270.4,27.7,269,27.9,268.6,28.1z"/>
		<path class="st2" d="M393.1,26l-0.4-1.1C391.8,25.1,391.6,26.3,393.1,26z"/>
		<path class="st2" d="M446.7,24.5c0.6,0.5,2.1,0.7,3,0.3C448.5,24.7,447.3,24.4,446.7,24.5z"/>
		<polygon class="st2" points="606.1,26.1 608.1,25.9 607.1,25.8 		"/>
	</g>
	<path class="st2" d="M39.4,22.4c0,0.1,0,0.1,0,0.2C39.4,22.5,39.4,22.4,39.4,22.4z"/>
	<path class="st2" d="M48.5,22.4C48.5,22.4,48.5,22.4,48.5,22.4c0,0.1,0,0.1,0,0.2L48.5,22.4z"/>
	<path class="st2" d="M18.8,22.1c0.1,0.3,0.2,0.6,0.3,0.9C19,22.3,20,22,18.8,22.1z"/>
	<path class="st2" d="M5.5,22.5C5.5,22.5,5.5,22.5,5.5,22.5C5.5,22.5,5.5,22.5,5.5,22.5z"/>
	<path class="st2" d="M30.1,22.7c0-0.1,0.1-0.3,0.1-0.4C30.1,22.4,30.1,22.6,30.1,22.7z"/>
	<path class="st2" d="M5.5,25.9c-0.1,0.1-0.5,0.1-0.6,0.2c-2.5-0.3,2.3-2.3,2.9,0.9c1.4,0.3,6.3-3.2,4.3-0.8
		c0.8-0.4,2.5-0.1,2.7-1.4c1,0.6-0.6,1.1,0.9,0.9c1.3,3.2,4.9-3,7.6-0.1c1.4-1.4,10.2,1.5,12.3-0.7c0.1,2,0.5,0.5,1.3-0.2
		c1.5-1,2.6,2.9,4.5,1c-0.9-1.1,1.9-1.1,1.8-0.3c0.2-0.9,0.6-0.5,0.5,0.2c3.1-2.6,1.2,1,3.3,1.6c0.9-0.3,1.5-1.8,1.7-3.6l-0.1,0.5
		c0-0.2-0.1-0.6,0.1-0.7c0.2-2.1-0.1-4.3-1.1-5.1c-0.9,1.8-2.3,0.2-0.5,0.2c-0.5-0.8-0.9-0.1-1.2,0.5c-0.3-2.2-1.1,0.4-1.5,0.8
		c0-2.9-0.2-1.1-0.6,0.3c-0.4-1.6-1.6-0.4-0.7-1.8c-1.1,0.7-3.1,1.9-3.5-0.1c-0.2,0.4-1,1.4-1.5,1.4c0.9-2-1.9-0.1-1.6-2.2
		c-0.7,1.8-2.4,0.9-3.6,1.9c0.1-0.1,0.2-0.4,0.3-0.3c-1.8-2.3-3.8,4.9-2.8-0.8c-0.3,0.7-1.3,0.9-1.1,1.7c-0.6-0.8-0.5-0.4-0.9-1.6
		c-0.1,1.8-0.6,0.3-1.1,1.4c-0.9-0.8-0.2-1.6-1.2-1.1c-0.5-0.5,0.4-1.2,0.4-1.2c-1,0-0.5,1.3-0.7,2c-1.2,0.4-0.6-0.9-1-1.6
		c-0.7,0.3-2.1,2.5-1.9,1c-0.7,0.5-2.9,1.1-3.5,1.1c0.9,1.5-1.5,3.1-0.4,1.1c-1.3,0.7,0-0.5,0.2-0.9c-0.9,0.4-2,1.4-2.8,1.1
		c-0.2-1.1,1.7-0.4,0.7-1.4l1.1,0.4c-0.9-1.8,0.7,0.1-0.1-1.8c-1.7,0.1-3.4-0.1-3.3,1.9c-2.1,1.1-1.6-2.8-3.2-1.3
		C11,21,9.1,21.6,10,19.4c-1.4-0.1-0.8,1.8-2.3,1C8,19.9,8.9,20,8.6,19.8c-1-1-0.7,0.7-1.4,0.7C6,19.5,3.9,19.8,1.5,20v6.6
		C3.5,26.6,5.9,28.5,5.5,25.9z M4.6,26.7c0,0.2-0.1,0.3-0.1,0.4C3.6,27.1,4.3,26.9,4.6,26.7z M2.7,20.9c-0.1,0-0.2,0-0.5,0.1
		C2.4,20.9,2.6,20.9,2.7,20.9z"/>
	<path class="st2" d="M48.4,22.8l0.1-0.5c0-0.1,0-0.1,0-0.2C48.3,22.3,48.4,22.6,48.4,22.8z"/>
	<path class="st2" d="M5,22.4c-0.1,0.2-0.2,0.3,0.1,0.3C5.3,22.6,5.1,22.5,5,22.4z"/>
	<path class="st2" d="M1805.5,23.1c0.4-0.6,0.2-2-0.9-1.7C1804.4,22.9,1803,24.4,1805.5,23.1z"/>
	<path class="st2" d="M1801.2,22.5c5.8-2.2-7.2-4.5-4.4,2.3C1797.7,23.4,1800.6,18.6,1801.2,22.5z"/>
	<path class="st2" d="M1699.2,22.6c-0.2-0.1-0.4-0.2-0.6-0.2L1699.2,22.6z"/>
	<path class="st2" d="M1636.5,22.7c0.5,0,0.7-0.2,0.7-0.3C1636.8,22.4,1636.4,22.5,1636.5,22.7z"/>
	<path class="st2" d="M1625.9,22.5c0.2,0,0.4,0.1,0.6,0.1C1626.3,22.4,1626.1,22.4,1625.9,22.5z"/>
	<path class="st2" d="M1698.5,22.8l-1.7-0.5C1696.7,22.8,1697.7,22.7,1698.5,22.8z"/>
	<path class="st2" d="M1784.8,22.8c0.3-0.1,0.6-0.3,0.9-0.6C1785.3,22.4,1784.8,22.3,1784.8,22.8z"/>
	<path class="st2" d="M1726.8,22.1l-0.9,0.8C1726.4,23,1726.6,22.6,1726.8,22.1z"/>
	<path class="st2" d="M1746.8,21.5c-0.3-0.3-0.9,1.9-0.6,2C1746.7,22.7,1747.4,22.8,1746.8,21.5z"/>
	<path class="st2" d="M1780.1,22.6l0.6-0.3C1780.5,22.5,1780.3,22.5,1780.1,22.6z"/>
	<path class="st2" d="M1710.8,22.8c0-0.2-0.1-0.4-0.2-0.6C1710.6,22.4,1710.7,22.6,1710.8,22.8z"/>
	<path class="st2" d="M1124,22.6c0-0.1,0-0.1,0-0.2C1123.9,22.5,1123.8,22.6,1124,22.6z"/>
	<path class="st2" d="M1099.7,22.9c0.4,0,0.4-0.4,0.4-0.7L1099.7,22.9z"/>
	<path class="st2" d="M1606.6,22.5c0,0,0.1,0,0.1,0C1607.1,22.4,1606.8,22.4,1606.6,22.5z"/>
	<path class="st2" d="M1428.6,21.7c1.9,0.6-2.8,0.9-0.6,1.5C1428.4,23.4,1431,22.1,1428.6,21.7z"/>
	<path class="st2" d="M1784.3,22.5c-0.3,0-0.6,0-0.9,0C1783.8,22.5,1784.1,22.5,1784.3,22.5z"/>
	<path class="st2" d="M1562.3,22.7c0-0.1-0.1-0.2-0.5-0.5C1562,22.5,1562.1,22.6,1562.3,22.7z"/>
	<path class="st2" d="M1595.1,22.6l-0.8-0.1C1594.6,22.5,1594.9,22.6,1595.1,22.6z"/>
	<path class="st2" d="M1544.2,22.5C1544.3,22.5,1544.3,22.5,1544.2,22.5C1544.3,22.5,1544.3,22.5,1544.2,22.5z"/>
	<path class="st2" d="M1544.2,22.5c-0.4-0.1-0.9-0.1-0.7,0.1C1543.7,22.5,1543.9,22.4,1544.2,22.5z"/>
	<path class="st2" d="M1544.3,22.5c0.1,0,0.2,0,0.3,0.1C1544.6,22.5,1544.4,22.5,1544.3,22.5z"/>
	<path class="st2" d="M1527.5,22.5l-0.9-0.1C1526.9,22.7,1527.2,22.6,1527.5,22.5z"/>
	<path class="st2" d="M1178.6,22.9c-0.4-0.3-0.6-0.6-0.8-0.9C1178.1,22.7,1175.4,23,1178.6,22.9z"/>
	<path class="st2" d="M1784.8,22.1c-0.1,0.5-0.3,0.7-0.5,0.8C1784.8,23,1785.1,22.5,1784.8,22.1z"/>
	<path class="st2" d="M1543.9,22.6l-2.9-0.2C1541.8,22.5,1542.9,22.6,1543.9,22.6z"/>
	<path class="st2" d="M1306.9,22.5c0.3,0,0.5,0,0.7-0.1L1306.9,22.5z"/>
	<path class="st2" d="M1530.6,22.4c0,0,1.9,0.4,1.9,0.4C1532,22.5,1531.1,21.8,1530.6,22.4z"/>
	<path class="st2" d="M1341.8,22.5C1341.8,22.5,1341.8,22.5,1341.8,22.5C1341.8,22.5,1341.8,22.5,1341.8,22.5z"/>
	<path class="st2" d="M1341.8,22.2c0.1,0.1,0.2,0.3,0.3,0.5C1342.7,22.4,1342.1,22.4,1341.8,22.2z"/>
	<path class="st2" d="M1102.6,27.5c4.5-2.7,1.7,2.6,8.7-1.5c0.3,0.7-1.3,1.5,0.6,1.8c1.3-0.8-1.3-1.6,0.9-2.2
		c0.2,2.9,18.4-1,19.4,2.7c-0.7-1.3,11.1-1.7,8.9-1.5c3.1,2.4,10.8-5,7.7,0.7c0.9-0.7,3.4-0.8,2.8-1.6c2.9,1.6,2.1,1,5.3,0.2
		c1.8,1.5,5.6,1,2.2,2.2c2.7-0.5,2.4-4.7,4.5-0.5c4.9-1.9,9.2-1.4,14.3-2.1c-2.3-2.4,4.5-2.7,1.2-1.1c0,0,1.3-0.4,1.3-0.4
		c1.2,1.2-1.7,0.4-1.7,1.3c2.5-0.4,5.4-1.4,7.3-1.1c0.4,1.1-4.5,0.4-1.9,1.4c-8.4-0.7,4.1,4.2,6.1-0.5c20.4,1,49,1.3,74.3-0.5
		c117.1,2,282.3,1.6,369.7,1.2c0,0,4.2-0.3,4.2-0.3c-4.3-0.7-0.1-4,3.8-1.3c6.2-3.3,1.1,3.9,10.6-0.3c-1.8,3.2,2-1.5,1.6,1.6
		c6.9-2.8,12.9,1.9,26-0.6c-2.7-2.6,3.2,0.7,5.1-0.1c-1.7,3.3,7.2,0.1,11.1-0.3c5.4,4.6,18.1-2.3,25.8,1.2c-4.2,1.3,3.6,0,3.8,0
		c-1.8-2-1.6-2.9,1.5-3.2c-2.6,0.7,1.6,4.3,1.1,1.6c2.6,2.4,0.4-2.7,3.9-1.1c-0.8,2,7-3.1,2.3,1.6c2-0.1,3.9-3,5.7-1.4
		c-6.1,1.5,2.1,3,3.9,3.4c-2.6-3.4,8.1-3,6.9-3.6c-2.8,2.4,1.5,2.8,1.6,4.6c2-0.3,4.2-1,6.2,0c0.2-4.6,6.5,1.8,11.7-1.4
		c15-9,2.6,1,12.6-2c0,4.1,1.7-0.7,3.6,0.4c-0.3,0.7-0.8,1.9-1.5,2.6c2.2-1.1,8.2-3.9,3.6,0.1c1.9-0.3,8.3-2,4.6-3.5
		c2.2,3.9-5.8,1.6-1.5,0.2c-1.1-5.2-10.4,4.9-6.8-2.4c-1.3,2-5.1,2.8-2.4-0.4c-1.4-1.4-3.1,1.3-3.2-1l-1.8,0.8c2-4.7-5.9,1-5.5-1.7
		c-4.9,1.4-2,8.6-6.2-0.5c1.9,1.9-8.8,4.3-9.2,0.8c-0.8,1.4,2.2,1.1-0.3,2.1c-0.7-3.2-2.8,0.6-4.9-0.9c0.6-1.7,2.6-0.8,0.5-2.3
		c-1.2,3-6.1-1.9-6.8,0.9c-3,1.7-9.9-0.1-13.9-1.5c-0.4,2.7-8.6,2.8-3.8-0.1c-4.4,0.4-5.4,0.7-12.2,0.6c2.7,4-2.8,7.2-0.2,2.5
		c-1.9,1-1.6,0-0.3-1c-1.5-0.6-0.8,1.1-2,1c-0.7-1.9-1.2-1.4,0.8-1.6c-3.7-2.2-4.5,1.7-6.9-1.9c-16.9,6.3-39.4-0.3-44.5,1.2
		c0.8-5.9-10.3,2.5-12.8-1.4c-1.4,1.1,2.8,0.8,1.6,2.1c-6.3-3-6.6-2.4-12.2-0.7c0.4,0.5,0.9,2-1.7,2.5c-3.3-0.1-2.4-3.8-0.6-2.4
		c3.8-1.9-12.5-1.3-15.4,1.1c-0.5-1.8-5.7-0.9-2.2-3c-7.9,1.2-6.4-3.5-9.9,2.2c-1.2-0.5-3.6,0.6-4.1-0.8c3.8,0.4-0.4-1.3,2.8-1.6
		c-5.4-1-8,1.8-13.3,2.2c4,0.5-3.3,1.7-1,0.5c-5.3,1.7-10.6-5.5-15.2-0.5c2-0.1,8.1-1.8,1.8,0.7c8.1-1.1-0.1,1.6-3,0.8
		c0.6-5.7-6.6-0.5-11-1.6c3.8,2.7-6.6-2.1-8.2,0.9c-2.4-2.9-13.6,3.6-8.1-0.9c-2.5,0.3-10.1,0.9-9.7,2.6c-14.7-3.1-25,0.6-32.9-2.1
		c-35.6,4.3-37.2-1.8-79.7,1.4c-21.7-4.9-60.9,0.9-99-2.2c-22,2.8-49.5-2-69,0.8c-14.2-0.1-22.8,2.6-35.1,0.3c9,0.2,2.9,0.2,4.9-1.9
		c-26.9,3.7-70.6,2-115.4,2.4c-0.2,0.4-1.5,1-1.3-0.2c0,0-4.4,1.1-4.4,1.1c-3.4-0.5,0.5-2.5-4.4-2.7c-1.9,0.2-5.3,1.8-4.6,2.3
		C1104.6,21.1,1094.8,24.8,1102.6,27.5z M1226.1,24.4c-0.3,0.2,1,0.4,1.8,0.6C1227.4,25,1224.2,25,1226.1,24.4z M1222.5,25
		c-0.5,0.1-1,0-1.3,0.1C1221.5,25.1,1221.9,25.1,1222.5,25z M1216.3,19.3c0.1-0.2,0.2-0.3,0.3-0.4
		C1218.8,18.9,1217.3,19.1,1216.3,19.3z"/>
	<path class="st2" d="M1759.3,22.8c0.1-0.3,0-0.5,0-0.7C1759.3,22.4,1759.3,22.6,1759.3,22.8z"/>
	<path class="st2" d="M1600.2,22.6c-0.1-0.1-0.3-0.2-0.6-0.3C1599.9,22.5,1600.1,22.6,1600.2,22.6z"/>
	<path class="st2" d="M1613.5,22.6c0.2,0,0.4-0.1,0.5-0.2L1613.5,22.6z"/>
	<path class="st2" d="M1214,22.5C1214,22.5,1214,22.5,1214,22.5C1213.9,22.5,1213.9,22.5,1214,22.5z"/>
	<path class="st2" d="M1751.5,22.7c0.2-0.1,0.4-0.3,0.6-0.5C1751.9,22.4,1751.7,22.6,1751.5,22.7z"/>
	<path class="st2" d="M1148.4,22.8c0.1-0.2,0.2-0.4,0.3-0.5C1148.5,22.4,1148.4,22.6,1148.4,22.8z"/>
	<path class="st2" d="M1746.2,22.3c-0.2,0.1-0.1,0.2-0.2,0.4C1746.1,22.5,1746.1,22.4,1746.2,22.3z"/>
	<path class="st2" d="M1606.6,22.5C1606.7,22.5,1606.6,22.5,1606.6,22.5C1606.6,22.5,1606.6,22.5,1606.6,22.5z"/>
	<path class="st2" d="M1428.4,22.5C1428,22.4,1428,22.4,1428.4,22.5C1428.4,22.5,1428.4,22.5,1428.4,22.5z"/>
	<path class="st2" d="M1428.4,22.5c0,0,0.3,0.1,0.3,0.1C1428.6,22.5,1428.5,22.5,1428.4,22.5z"/>
	<path class="st2" d="M1215.1,22.4c-0.1,0-0.2,0.1-0.3,0.1C1215.1,22.9,1215.9,22.3,1215.1,22.4z"/>
	<path class="st2" d="M1699.2,22.4c0.1,0.1,0.2,0.1,0.2,0.2C1699.3,22.5,1699.3,22.4,1699.2,22.4z"/>
	<path class="st2" d="M1301.2,22.6l0.5,0C1301.7,22.2,1301.3,22.6,1301.2,22.6z"/>
	<path class="st2" d="M1729.1,22.7c0-0.1-0.2-0.3-0.4-0.4C1728.7,22.4,1728.9,22.6,1729.1,22.7z"/>
	<path class="st2" d="M1741.4,22.2l1.8,0.6C1742.4,22.5,1742,22.3,1741.4,22.2z"/>
	<path class="st2" d="M1741.8,22.5C1741.8,22.5,1741.8,22.5,1741.8,22.5L1741.8,22.5z"/>
	<path class="st2" d="M1751.3,22.1l-0.2,0.7C1751.3,22.6,1751.4,22.3,1751.3,22.1z"/>
	<path class="st2" d="M1595.8,22.4c-0.1,0-0.3,0-0.4,0C1594.6,22.7,1595.2,22.6,1595.8,22.4z"/>
	<path class="st2" d="M1642,22.2c-0.5,0.2-1,0.5-1.5,0.6C1641.4,22.9,1642,22.9,1642,22.2z"/>
	<path class="st2" d="M1543.9,22.5l0.3,0C1544.1,22.5,1544,22.5,1543.9,22.5z"/>
	<path class="st2" d="M1638.4,22.5c0.8,0.3,1.5,0.2,2.1,0C1639.9,22.4,1639.1,22.3,1638.4,22.5z"/>
	<path class="st2" d="M1794,22.4l-0.5,0.2C1793.8,22.6,1794,22.7,1794,22.4z"/>
	<path class="st2" d="M1794,22.6l0.5-0.2C1794.3,22.4,1794.1,22.4,1794,22.6z"/>
	<path class="st2" d="M1795.7,22.3l-1.1,0.5C1794.9,22.7,1795.4,22.8,1795.7,22.3z"/>
	<path class="st2" d="M1780.6,22.2l-0.1,0.7C1780.5,22.7,1780.6,22.5,1780.6,22.2z"/>
	<path class="st2" d="M1776.7,22.1c0.8,0,3.4,2.2,3.8,0.5C1779.8,23.6,1777.5,20.9,1776.7,22.1z"/>
	<path class="st2" d="M1763.7,21.9c-4.2-2,0.9,1.5-3.5,1.3l3.3,0.5C1763,23,1762.2,22.1,1763.7,21.9z"/>
	<path class="st2" d="M1750,23.2c1.8-0.3,0-1,0.1-1.3C1749,22.5,1748.7,22.6,1750,23.2z"/>
	<path class="st2" d="M1676.2,23.2l0.2-1.3C1675,22.1,1676.4,22.4,1676.2,23.2z"/>
	<path class="st2" d="M1664.1,22c0,0-2,0.4-2,0.4C1663.1,23.1,1663.6,23.4,1664.1,22z"/>
	<path class="st2" d="M1654.4,22.3l-2.3,0.5C1652.5,22.7,1654,22.4,1654.4,22.3z"/>
	<path class="st2" d="M1529.8,22l0.4,1.1C1531.2,22.9,1531.4,21.6,1529.8,22z"/>
	<path class="st2" d="M1476.3,22.7c-0.6-0.5-2.1-0.7-3-0.3C1474.5,22.5,1475.7,22.9,1476.3,22.7z"/>
	<path class="st2" d="M1316.9,22.4l-2,0.2C1315.4,22.7,1316.4,22.6,1316.9,22.4z"/>
	<path class="st2" d="M1883.6,22.6c0-0.1,0-0.1,0-0.2C1883.6,22.5,1883.6,22.6,1883.6,22.6z"/>
	<path class="st2" d="M1874.5,22.6c0-0.1,0-0.1,0-0.2L1874.5,22.6C1874.5,22.6,1874.5,22.6,1874.5,22.6z"/>
	<path class="st2" d="M1904.2,22.9c-0.1-0.3-0.2-0.6-0.3-0.9C1904,22.7,1903,23,1904.2,22.9z"/>
	<path class="st2" d="M1917.5,19.1c0.1-0.1,0.5-0.1,0.6-0.2c2.5,0.3-2.3,2.3-2.9-0.9c-1.4-0.3-6.3,3.2-4.3,0.8
		c-0.8,0.4-2.5,0.1-2.7,1.4c-1-0.6,0.6-1.1-0.9-0.9c-1.3-3.2-4.9,3-7.6,0.2c-1.4,1.4-10.2-1.5-12.3,0.7c-0.1-2-0.5-0.5-1.3,0.2
		c-1.5,1-2.6-2.9-4.5-1c0.9,1.1-1.9,1.1-1.8,0.3c-0.2,0.9-0.6,0.5-0.5-0.2c-3.1,2.6-1.2-1-3.3-1.6c-0.9,0.3-1.5,1.8-1.7,3.6l0.1-0.5
		c0,0.2,0.1,0.6-0.1,0.7c-0.2,2.1,0.1,4.3,1.1,5.1c0.9-1.8,2.3-0.2,0.5-0.2c0.5,0.8,0.9,0.1,1.2-0.5c0.3,2.2,1.1-0.4,1.5-0.8
		c0,2.9,0.2,1.1,0.6-0.3c0.4,1.6,1.6,0.4,0.7,1.8c1.1-0.7,3.1-1.9,3.5,0.1c0.2-0.4,1-1.4,1.5-1.4c-0.9,2,1.9,0.1,1.6,2.2
		c0.7-1.8,2.4-0.9,3.6-1.9c-0.1,0.1-0.2,0.4-0.3,0.3c1.8,2.3,3.8-4.9,2.8,0.8c0.3-0.7,1.3-0.9,1.1-1.7c0.6,0.8,0.5,0.4,0.9,1.6
		c0.1-1.8,0.6-0.3,1.1-1.4c0.9,0.8,0.2,1.6,1.2,1.1c0.5,0.5-0.4,1.2-0.4,1.2c1,0,0.5-1.3,0.7-2c1.2-0.4,0.6,0.9,1,1.6
		c0.7-0.3,2.1-2.5,1.9-1c0.7-0.5,2.9-1.1,3.5-1.1c-0.9-1.5,1.5-3.1,0.4-1.1c1.3-0.7,0,0.5-0.2,0.9c0.9-0.4,2-1.4,2.8-1.1
		c0.2,1.1-1.7,0.4-0.7,1.4l-1.1-0.4c0.9,1.8-0.7-0.1,0.1,1.8c1.7-0.1,3.4,0.1,3.3-1.9c2.1-1.1,1.6,2.8,3.2,1.3
		c0.3-1.8,2.2-2.3,1.3-0.2c1.4,0.1,0.8-1.8,2.3-1c-0.3,0.5-1.1,0.4-0.9,0.6c1,1,0.7-0.7,1.4-0.7c1.2,1.1,3.3,0.7,5.7,0.6v-6.6
		C1919.4,18.4,1917.1,16.5,1917.5,19.1z M1918.4,18.3c0-0.2,0.1-0.3,0.1-0.4C1919.4,17.9,1918.7,18.1,1918.4,18.3z M1920.3,24.1
		c0.1,0,0.2,0,0.5-0.1C1920.6,24.1,1920.4,24.1,1920.3,24.1z"/>
	<path class="st2" d="M1892.9,22.3c0,0.1-0.1,0.3-0.1,0.4C1892.9,22.6,1892.9,22.4,1892.9,22.3z"/>
	<path class="st2" d="M1917.5,22.5C1917.5,22.5,1917.5,22.5,1917.5,22.5C1917.5,22.5,1917.5,22.5,1917.5,22.5z"/>
	<path class="st2" d="M1874.6,22.2l-0.1,0.5c0,0.1,0,0.1,0,0.2C1874.7,22.7,1874.6,22.4,1874.6,22.2z"/>
	<path class="st2" d="M1918,22.6c0.1-0.2,0.2-0.3-0.1-0.3C1917.7,22.4,1917.9,22.5,1918,22.6z"/>
	<path class="st3" d="M74.7,28.8c1,0.6,1.8,1.5,2.4,2.4c3.2,4.8,5.7,10,6.3,14.5c0.6-4.5,3.1-9.7,6.3-14.5c0.6-1,1.5-1.8,2.4-2.4
		c4.8-3.2,10-5.7,14.5-6.3c-4.5-0.6-9.7-3.1-14.5-6.3c-1-0.6-1.8-1.5-2.4-2.4C86.5,9,84,3.8,83.4-0.7c-0.6,4.5-3.1,9.7-6.3,14.5
		c-0.6,1-1.5,1.8-2.4,2.4c-4.8,3.2-10,5.7-14.5,6.3C64.7,23.1,69.9,25.6,74.7,28.8z M80.3,15.9c1-1.5,2.1-3.3,3.1-5.3
		c1,2,2.1,3.8,3.1,5.3c0.9,1.4,2.1,2.5,3.5,3.5c1.5,1,3.3,2.1,5.3,3.1c-2,1-3.8,2.1-5.3,3.1c-1.4,0.9-2.5,2.1-3.5,3.5
		c-1,1.5-2.1,3.3-3.1,5.3c-1-2-2.1-3.8-3.1-5.3c-0.9-1.4-2.1-2.5-3.5-3.5c-1.5-1-3.3-2.1-5.3-3.1c2-1,3.8-2.1,5.3-3.1
		C78.2,18.4,79.3,17.3,80.3,15.9z"/>
	<path class="st3" d="M1862.8,22.5c-4.5-0.6-9.7-3.1-14.5-6.3c-1-0.6-1.8-1.5-2.4-2.4c-3.2-4.8-5.7-10-6.3-14.5
		c-0.6,4.5-3.1,9.7-6.3,14.5c-0.6,1-1.5,1.8-2.4,2.4c-4.8,3.2-10,5.7-14.5,6.3c4.5,0.6,9.7,3.1,14.5,6.3c1,0.6,1.8,1.5,2.4,2.4
		c3.2,4.8,5.7,10,6.3,14.5c0.6-4.5,3.1-9.7,6.3-14.5c0.6-1,1.5-1.8,2.4-2.4C1853.1,25.6,1858.3,23.1,1862.8,22.5z M1846.2,19.4
		c1.5,1,3.3,2.1,5.3,3.1c-2,1-3.8,2.1-5.3,3.1c-1.4,0.9-2.5,2.1-3.5,3.5c-1,1.5-2.1,3.3-3.1,5.3c-1-2-2.1-3.8-3.1-5.3
		c-0.9-1.4-2.1-2.5-3.5-3.5c-1.5-1-3.3-2.1-5.3-3.1c2-1,3.8-2.1,5.3-3.1c1.4-0.9,2.5-2.1,3.5-3.5c1-1.5,2.1-3.3,3.1-5.3
		c1,2,2.1,3.8,3.1,5.3C1843.6,17.3,1844.8,18.4,1846.2,19.4z"/>
</g>
</svg>
