<?xml version="1.0" encoding="UTF-8"?><svg id="Capa_2" xmlns="http://www.w3.org/2000/svg" viewBox="0 0 1105.82 465.6"><defs><style>.cls-1{fill:#353331;}.cls-1,.cls-2{stroke-width:0px;}.cls-2{fill:#f1e2d1;}</style></defs><g id="Capa_2-2"><path class="cls-2" d="M36.74,88.71h34.41c31.73,0,48.85-24.57,48.85-47.69,0-10.58-3.58-20.25-10.08-27.24-7.34-7.89-18.04-12.06-30.95-12.06H13.65l-.24,2.6.94.03c3.67.1,6.25.5,7.78,2.2,1.4,1.55,1.93,4.23,1.64,8.2l-11.26,122.75c-.88,9.54-3.68,10.39-11.47,10.39H.24l-.24,2.63h42.39l.24-2.63h-.97c-3.84,0-6.52-.32-7.99-1.94-1.35-1.48-1.8-4.11-1.42-8.29l4.49-48.95ZM100.36,38.67c0,11.69-2.76,23.46-7.57,32.28-3.77,6.9-10.5,15.13-21.2,15.13h-34.61l6.53-71.16c1.07-9.82,5.43-10.57,11.48-10.57h24.26c15.58,0,21.11,18.49,21.11,34.32Z"/><path class="cls-2" d="M204.81,132.33L164.44,2.34l-.19-.62h-32.55l-.24,2.63h.97c10.69,0,11.72,2.24,13.98,7.16l.1.23-44.84,100.7h-.03c-.71,1.55-1.41,3.1-2.09,4.62-7.64,16.98-13.67,30.38-25.06,30.84l-.78.03-.24,2.6h48.14l.24-2.63h-.97c-10.02,0-16.26-2.12-19.1-6.5-5.62-8.67,1.55-26.31,13.14-52.22,4.31-4.86,15.67-5.88,30.43-2.73,14.45,3.09,27.34,9.38,28.72,14.03l11.15,37.2c1.22,3.8,1.26,6.3.12,7.86-1.15,1.58-3.67,2.35-7.69,2.35h-.81l-.24,2.63h43.83l.24-2.63h-.97c-6.11,0-10.98-2.65-14.92-15.56ZM117.53,83.18l30.38-67.94,22.57,73.89c.19.58.13.77.13.77-.65.54-4.93-.76-8.71-1.92-7.7-2.35-19.27-5.89-32.32-5.89-3.9,0-7.94.32-12.04,1.07Z"/><path class="cls-2" d="M293,4.35h.97c8.14,0,13.66,1.89,17.36,5.95,6.69,7.33,8.21,22.1,5.4,52.65l-3.17,34.61c-2.83,30.9-32.94,51.44-57.96,49.13-21.27-1.95-32.51-18.97-30.08-45.52l7.91-86.24c1.02-9.3,4.45-10.4,11.5-10.57l.79-.02.24-2.61h-42.93l-.24,2.63h.97c3.68,0,6.63.14,8.31,1.95,1.41,1.52,1.94,4.29,1.63,8.45l-8.23,89.7c-1.04,11.35,2.84,22.48,10.92,31.34,9.4,10.31,23.66,16.46,38.13,16.46,28.17,0,58.41-18.73,61.69-54.52l3.17-34.61c3.98-43.39,10.07-58.76,23.27-58.76h.81l.24-2.63h-50.47l-.24,2.63Z"/><path class="cls-2" d="M506.93,101.06l-.2.61c-12.41,37.55-28.06,45.53-49.29,46.22h-29.1c-3.92,0-6.64-.31-8.06-1.87-1.33-1.46-1.74-4.15-1.33-8.7l11.23-122.39c1.07-9.82,5.43-10.57,11.48-10.57h.81l.24-2.63h-42.39l-.24,2.6.94.03c3.63.1,6.2.51,7.75,2.23,1.41,1.56,1.96,4.24,1.67,8.17l-11.23,122.41c-.9,9.76-4.03,10.73-11.5,10.73h-.81l-.24,2.63h106.73l16.28-49.46h-2.76Z"/><path class="cls-2" d="M619.06,101.06l-.2.61c-13.16,39.82-36.24,45.62-54.85,46.22h-22.64c-3.48,0-6.09-.31-7.49-1.84-1.34-1.46-1.77-4.24-1.36-8.73l5.52-60.14h30.39c19.69,1.47,24.09,7.71,22.42,31.76l-.07.95h2.66l2.74-33.86,2.94-34.02h-2.67l-.07.8c-2.18,23.81-8.2,31.73-39.48,31.73h-18.62l5.47-59.62c1.07-9.82,5.43-10.57,11.48-10.57h26.23c24.71,0,33.56,25.43,36.63,46.76l.11.76h2.68l-7.13-50.15h-99.87l-.24,2.63h.97c3.62,0,6.17.33,7.71,1.99,1.44,1.55,1.99,4.31,1.69,8.41l-11.23,122.41c-.9,9.76-4.03,10.73-11.5,10.73h-.81l-.24,2.63h105.29l16.28-49.46h-2.76Z"/><path class="cls-2" d="M869.17,101.67c-12.41,37.55-28.06,45.53-49.29,46.22h-29.1c-3.92,0-6.64-.31-8.06-1.87-1.33-1.46-1.74-4.15-1.33-8.7l11.23-122.39c1.07-9.82,5.43-10.57,11.48-10.57h.81l.24-2.63h-42.39l-.24,2.6.94.03c3.63.1,6.2.51,7.75,2.23,1.41,1.56,1.96,4.24,1.67,8.17l-11.23,122.41c-.75,8.2-3.08,10.2-8.24,10.62-5.2-.6-9.45-3.95-12.97-15.45L700.09,2.34l-.19-.62h-32.55l-.24,2.63h.97c10.69,0,11.72,2.24,13.98,7.16l.1.23-44.84,100.7h-.03c-.71,1.55-1.41,3.1-2.09,4.62-7.64,16.98-13.67,30.38-25.06,30.84l-.78.03-.24,2.6h48.14l.24-2.63h-.97c-10.02,0-16.26-2.12-19.1-6.5-5.62-8.67,1.55-26.31,13.14-52.22,4.31-4.86,15.67-5.88,30.43-2.73,14.45,3.09,27.34,9.38,28.72,14.03l11.15,37.2c1.22,3.8,1.26,6.3.12,7.86-1.15,1.58-3.67,2.35-7.69,2.35h-.81l-.24,2.63h143.57l16.28-49.46h-2.76l-.2.61ZM653.18,83.18l30.38-67.94,22.57,73.89c.19.58.13.77.13.77-.65.54-4.93-.76-8.71-1.92-7.7-2.35-19.27-5.89-32.32-5.89-3.9,0-7.94.32-12.04,1.07Z"/><path class="cls-2" d="M890.02,1.86c-2.02-1.31-3.95-1.86-6.43-1.86-7.88,0-12.13,5.93-12.13,11.51,0,2.6.91,4.99,2.57,6.73,1.86,1.95,4.55,2.99,7.77,2.99s5.79-1,7.91-2.83c-3.24,8.35-12.51,17.66-25.09,21.24l-.58.17-.25,2.7,1.2-.29c15.36-3.75,27.63-17.8,29.45-28.57.88-5.17-.69-9.35-4.43-11.77Z"/><path class="cls-2" d="M953.99,54.37c-10.94-6.29-21.27-12.23-25.98-21.05-3.23-6.04-3.14-12.28.26-17.57,4.37-6.82,13.58-10.84,23.47-10.24h0c18.31.98,30.6,16.43,30.58,38.46v.74s2.25,0,2.25,0l-1.69-43.08h-2.06l-.2.41c-2.24,4.54-8.11,3.57-15.53,2.34-3.44-.57-7.33-1.21-11.28-1.35-13.66-.4-26.82,5.35-34.29,15.01-5.24,6.77-6.94,14.6-4.78,22.03,3.66,12.44,17.06,5.15,30.02,12.87,14.49,8.63,28.17,16.79,29.46,30.52.34,3.46.12,10.17-5.06,16.15-5.59,6.45-15.15,10.04-28.42,10.67-20.96.98-32.08-13.46-33.96-44.14l-.04-.7h-2.2l1.64,48.29h2.03l.21-.38c3.17-5.65,8.85-4.45,16.72-2.78,4.66.99,9.93,2.11,15.6,1.89,25.42-.93,43-14.09,44.78-33.53,1.89-20.63-15.1-15.13-31.54-24.58Z"/><path class="cls-2" d="M653.18,83.18s-21.66,3.86-34.82,3.16c0,0,24.55,3.88,32.23,1.02"/><path class="cls-2" d="M117.62,83.14s-12.3,3.86-19.77,3.16c0,0,13.94,3.88,18.3,1.02"/><path class="cls-2" d="M258.19,179.62s-294.26,0-147.13,0,147.13,20.35,147.13,142.83"/><path class="cls-1" d="M1069.02,115.52c-2.77-1.85-5.12-4.2-6.97-6.97-3.71-5.57-7.99-12.79-11.2-20.56-3.21,7.77-7.49,15-11.2,20.56-1.85,2.77-4.2,5.12-6.98,6.97-5.56,3.71-12.78,7.99-20.56,11.2,7.78,3.21,15,7.49,20.56,11.2,2.78,1.85,5.13,4.2,6.98,6.98,3.71,5.56,7.99,12.78,11.2,20.56,3.21-7.78,7.49-15,11.2-20.56,1.85-2.78,4.2-5.13,6.97-6.98,5.56-3.71,12.79-7.99,20.56-11.2-7.77-3.21-15-7.49-20.56-11.2ZM1066.53,134.18c-3.28,2.18-6.04,4.95-8.23,8.22-2.39,3.59-5.01,7.84-7.45,12.5-2.45-4.66-5.07-8.91-7.46-12.5-2.18-3.27-4.95-6.04-8.22-8.22-3.59-2.39-7.84-5.01-12.5-7.46,4.66-2.44,8.91-5.06,12.5-7.45,3.27-2.19,6.04-4.95,8.22-8.23,2.39-3.58,5.01-7.84,7.46-12.5,2.44,4.66,5.06,8.92,7.45,12.5,2.19,3.28,4.95,6.04,8.23,8.23,3.58,2.39,7.84,5.01,12.5,7.45-4.66,2.45-8.92,5.07-12.5,7.46Z"/><path class="cls-2" d="M1071.52,111.78c-2.27-1.51-4.22-3.46-5.73-5.73-7.57-11.35-13.47-23.67-14.94-34.3-1.47,10.63-7.38,22.95-14.95,34.3-1.51,2.27-3.46,4.22-5.73,5.73-11.34,7.57-23.67,13.47-34.29,14.94,10.62,1.47,22.95,7.38,34.29,14.95,2.27,1.51,4.22,3.46,5.73,5.73,7.57,11.34,13.48,23.67,14.95,34.29,1.47-10.62,7.37-22.95,14.94-34.29,1.51-2.27,3.46-4.22,5.73-5.73,11.35-7.57,23.67-13.48,34.3-14.95-10.63-1.47-22.95-7.37-34.3-14.94ZM1058.3,142.4c-2.39,3.59-5.01,7.84-7.45,12.5-2.45-4.66-5.07-8.91-7.46-12.5-2.18-3.27-4.95-6.04-8.22-8.22-3.59-2.39-7.84-5.01-12.5-7.46,4.66-2.44,8.91-5.06,12.5-7.45,3.27-2.19,6.04-4.95,8.22-8.23,2.39-3.58,5.01-7.84,7.46-12.5,2.44,4.66,5.06,8.92,7.45,12.5,2.19,3.28,4.95,6.04,8.23,8.23,3.58,2.39,7.84,5.01,12.5,7.45-4.66,2.45-8.92,5.07-12.5,7.46-3.28,2.18-6.04,4.95-8.23,8.22Z"/><path class="cls-2" d="M303.89,191.91c0-3-1-5.66-3-8-2-2.33-4.5-3.66-7.5-4v-1h27c2,0,3.83.84,5.5,2.5.66-.66,1.91-1.25,3.75-1.75,1.83-.5,4.25-.75,7.25-.75h3.5c5.66,0,10.75,1.5,15.25,4.5s7.91,7,10.25,12c1.66,3.34,2.5,6.67,2.5,10v40.5c-.67,6-2.34,10.84-5,14.5-2.67,3.67-6,6.5-10,8.5-3,1-6,1.84-9,2.5-3.67,1-7.67,1.17-12,.5-2-.66-3.34-1.16-4-1.5h-.5l-.5-.5v144.69c0,5,.5,9.25,1.5,12.75s4,5.25,9,5.25c-5.67,0-10.42,1.75-14.25,5.25-3.84,3.5-7.5,7.25-11,11.25s-7.34,7.75-11.5,11.25c-4.17,3.5-9.25,5.25-15.25,5.25,3,0,5.58-1.09,7.75-3.25,2.16-2.17,4-4.92,5.5-8.25,1.5-3.34,2.66-7.09,3.5-11.25.83-4.17,1.25-8.09,1.25-11.75v-153.69c0-3.33-2.17-5-6.5-5,4.33,0,6.5-1.66,6.5-5v-75.5ZM321.39,252.91c0,.34-.09.75-.25,1.25-.17.5-.09,1.09.25,1.75.66,3,2.66,5,6,6,.66,0,1.33.09,2,.25.66.17,1.33.25,2,.25h.5c3.66-.33,6.75-2,9.25-5s3.75-6.83,3.75-11.5v-50.5c0-5.33-2.67-8.66-8-10-3.34-1-6.5-.5-9.5,1.5v59.5c.66,0,1.16.17,1.5.5.66.34,1.33,1.17,2,2.5-1-1-2.17-1.5-3.5-1.5-3.34-.66-5.34.67-6,4v1Z"/><path class="cls-2" d="M407.38,401.6c-7.67,0-14.17-2.58-19.5-7.75-5.34-5.16-8.17-11.58-8.5-19.25v-144.19c.33-7.66,3.16-14,8.5-19,5.33-5,11.83-7.5,19.5-7.5h17c7.66,0,14.16,2.5,19.5,7.5,5.33,5,8.16,11.34,8.5,19v144.19c-.34,7.67-3.17,14.09-8.5,19.25-5.34,5.17-11.84,7.75-19.5,7.75h-17ZM402.88,374.6c0,9,1.66,14.34,5,16,3.33,1.67,6,2.5,8,2.5h5.5c2,0,3.75-.83,5.25-2.5,1.5-1.66,2.25-3.66,2.25-6v-154.19c0-8.66-1.59-13.91-4.75-15.75-3.17-1.83-5.92-2.75-8.25-2.75s-5,.92-8,2.75c-3,1.84-4.67,7.09-5,15.75v144.19Z"/><path class="cls-2" d="M468.88,401.6h-10.5v-.5c3-.33,5.5-1.75,7.5-4.25s3-5.25,3-8.25v-171.69c0-3.33-1-6.16-3-8.5-2-2.33-4.5-3.66-7.5-4v-.5h27c2.33,0,4.16.67,5.5,2,2-1.33,5.66-2,11-2h3.5c5.66,0,10.75,1.5,15.25,4.5s7.91,6.84,10.25,11.5c1.66,3.34,2.5,6.84,2.5,10.5v40.5c-1.34,10.67-6.17,18.17-14.5,22.5h-.5c-.34.34-.67.5-1,.5s-.67.17-1,.5c6.33,1.67,11.83,4.59,16.5,8.75,4.66,4.17,7,10.09,7,17.75v79.19c0,3.66.41,7.58,1.25,11.75.83,4.16,2,7.91,3.5,11.25,1.5,3.33,3.33,6.08,5.5,8.25s4.75,3.25,7.75,3.25c-6,0-11-1.75-15-5.25s-7.84-7.25-11.5-11.25c-3.67-4-7.42-7.75-11.25-11.25-3.84-3.5-8.59-5.25-14.25-5.25,4.66,0,7.58-1.33,8.75-4,1.16-2.66,1.75-6.16,1.75-10.5v-62.69c0-6.33-.84-11.33-2.5-15-1.67-3.66-3.67-6.41-6-8.25-2.34-1.83-4.5-3-6.5-3.5s-3.34-.75-4-.75h-5v91.69c0,3,1.08,5.75,3.25,8.25,2.16,2.5,4.58,3.92,7.25,4.25v.5h-34ZM486.38,277.91c0,.34-.09.67-.25,1-.17.34-.09.84.25,1.5.33,3,2.33,5,6,6,1,.34,2.33.5,4,.5h.5c3.66,0,6.75-1.58,9.25-4.75,2.5-3.16,3.75-7.08,3.75-11.75v-50.5c0-5.33-2.67-8.66-8-10-3.34-.66-6.5-.16-9.5,1.5v59.5c.33.34.83.5,1.5.5,1,1,1.66,2,2,3-.34-1.33-1.5-2-3.5-2-1.34,0-2.59.34-3.75,1-1.17.67-1.92,1.84-2.25,3.5v1Z"/><path class="cls-2" d="M537.88,203.41h111.5v1c-4,.67-7,2.59-9,5.75-2,3.17-3.84,7.09-5.5,11.75l-18,44.5c1.66-4,3.25-9.08,4.75-15.25,1.5-6.16,2.16-12.16,2-18-.17-5.83-1.5-10.91-4-15.25-2.5-4.33-6.92-6.83-13.25-7.5h-1v178.19c0,3,1,5.75,3,8.25s4.5,3.92,7.5,4.25v.5h-44.5v-.5c2.66-.33,5.08-1.75,7.25-4.25,2.16-2.5,3.25-5.25,3.25-8.25v-178.19c-6.67.34-11.34,2.59-14,6.75-2.67,4.17-4.09,9.25-4.25,15.25-.17,6,.5,12.09,2,18.25,1.5,6.17,3.08,11.42,4.75,15.75l-18-44.5c-1.67-4.66-3.5-8.58-5.5-11.75-2-3.16-5-5.08-9-5.75v-1Z"/><path class="cls-2" d="M659.72,203.41h89.5v1c-3.67.67-6.5,2.59-8.5,5.75-2,3.17-4,7.09-6,11.75l-17.5,44.5c1.66-4,3.25-9.08,4.75-15.25,1.5-6.16,2.16-12.16,2-18-.17-5.83-1.5-10.91-4-15.25-2.5-4.33-6.92-6.83-13.25-7.5h-13v56.5c.33.34.83.5,1.5.5v.5c0,.34.16.5.5.5s.58.09.75.25c.16.17.58.25,1.25.25,1.33.67,2.16,1.17,2.5,1.5,7.66,3.34,13.83,3.67,18.5,1l2.5-2.5,1-1c1-1.33,1.5-2.83,1.5-4.5v-2l.5-.5v2.5c0,1.67-.5,3.5-1.5,5.5-.34.34-.5.67-.5,1l-.5.5v.5c-.34,0-.5.17-.5.5-.67,1-1.84,2.34-3.5,4-.34.34-1.17.84-2.5,1.5-.67.67-1.25,1.09-1.75,1.25-.5.17-1.09.42-1.75.75-1.34.67-2.5,1-3.5,1-2.67,1-5.67,1.17-9,.5-2-.33-3.84-1-5.5-2v26.5-16.81,100.5c0,3,1.08,5.75,3.25,8.25,2.16,2.5,4.58,3.92,7.25,4.25v.5h-44.5v-.5c3-.33,5.5-1.75,7.5-4.25s3-5.25,3-8.25v-116.69c-1.34,0-2.5.5-3.5,1.5l-1.75,1.75-1.75,1.75c0,.34-.09.5-.25.5s-.25.17-.25.5c-.67,2-1,3.34-1,4v1.5h-.5v-1.5c0-1,.16-2,.5-3,.66-2,1.33-3.5,2-4.5v-.5c1.33-2.33,2.66-3.83,4-4.5.66-.33,1.08-.66,1.25-1,.16-.33.58-.66,1.25-1v-51c0-3-1-5.66-3-8-2-2.33-4.5-3.66-7.5-4v-1Z"/><path class="cls-2" d="M775.22,401.6c-7.67,0-14.17-2.58-19.5-7.75-5.34-5.16-8.17-11.58-8.5-19.25v-144.19c.33-7.66,3.16-14,8.5-19,5.33-5,11.83-7.5,19.5-7.5h17c7.66,0,14.16,2.5,19.5,7.5,5.33,5,8.16,11.34,8.5,19v144.19c-.34,7.67-3.17,14.09-8.5,19.25-5.34,5.17-11.84,7.75-19.5,7.75h-17ZM770.72,374.6c0,9,1.66,14.34,5,16,3.33,1.67,6,2.5,8,2.5h5.5c2,0,3.75-.83,5.25-2.5,1.5-1.66,2.25-3.66,2.25-6v-154.19c0-8.66-1.59-13.91-4.75-15.75-3.17-1.83-5.92-2.75-8.25-2.75s-5,.92-8,2.75c-3,1.84-4.67,7.09-5,15.75v144.19Z"/><path class="cls-2" d="M836.72,401.6h-10.5v-.5c3-.33,5.5-1.75,7.5-4.25s3-5.25,3-8.25v-172.19c0-3-1-5.66-3-8-2-2.33-4.5-3.66-7.5-4v-1h44.5v1c-2.67.34-5.09,1.67-7.25,4-2.17,2.34-3.25,5-3.25,8v164.19c0,4.67,1.5,8.75,4.5,12.25s6.83,5.42,11.5,5.75h2.5c5.66,0,10.25-2,13.75-6s5.08-9.5,4.75-16.5l-1-21.5c-.34-3.66-.59-7.75-.75-12.25-.17-4.5-.59-9.41-1.25-14.75l-2-25-2.5-26,19,78,6.5,28c1.33,4.67,2.83,9,4.5,13,1.66,4,4.83,6,9.5,6h-92.5Z"/><path class="cls-2" d="M956.21,377.1v11.5c0,3,1.08,5.75,3.25,8.25,2.16,2.5,4.58,3.92,7.25,4.25v.5h-44.5v-.5c3-.33,5.5-1.75,7.5-4.25s3-5.25,3-8.25v-172.19c0-3-1-5.66-3-8-2-2.33-4.5-3.66-7.5-4v-.5h44.5v.5c-2.67.34-5.09,1.67-7.25,4-2.17,2.34-3.25,5-3.25,8v160.69ZM944.71,191.91c-2.34-3.66-4.17-6.16-5.5-7.5-1.34-1.33-3.84-3.16-7.5-5.5,3.66-2,6.16-3.66,7.5-5s3.16-3.83,5.5-7.5c2,3.67,3.66,6.17,5,7.5,1.33,1.34,3.83,3,7.5,5-3.67,2.34-6.17,4.17-7.5,5.5s-3,3.84-5,7.5Z"/><path class="cls-2" d="M1005.71,401.6c-7.67,0-14.17-2.58-19.5-7.75-5.34-5.16-8.17-11.58-8.5-19.25v-144.19c.33-7.66,3.16-14,8.5-19,5.33-5,11.83-7.5,19.5-7.5h17c7.66,0,14.16,2.5,19.5,7.5,5.33,5,8.16,11.34,8.5,19v144.19c-.34,7.67-3.17,14.09-8.5,19.25-5.34,5.17-11.84,7.75-19.5,7.75h-17ZM1001.21,374.6c0,9,1.66,14.34,5,16,3.33,1.67,6,2.5,8,2.5h5.5c2,0,3.75-.83,5.25-2.5,1.5-1.66,2.25-3.66,2.25-6v-154.19c0-8.66-1.59-13.91-4.75-15.75-3.17-1.83-5.92-2.75-8.25-2.75s-5,.92-8,2.75c-3,1.84-4.67,7.09-5,15.75v144.19Z"/></g></svg>