<?xml version="1.0" encoding="utf-8"?>
<!-- Generator: Adobe Illustrator 28.1.0, SVG Export Plug-In . SVG Version: 6.00 Build 0)  -->
<svg version="1.1" id="Capa_1" xmlns="http://www.w3.org/2000/svg" xmlns:xlink="http://www.w3.org/1999/xlink" x="0px" y="0px"
	 viewBox="0 0 48 48" style="enable-background:new 0 0 48 48;" xml:space="preserve">
<style type="text/css">
	.st0{fill:#353331;stroke:#353331;stroke-width:0.75;stroke-miterlimit:10;}
	.st1{fill:none;}
</style>
<path class="st0" d="M47.8,45L45,47.8c0.1-0.8-0.7-1.2-1.1-1.7C37.1,39.2,29.9,31.8,23,25C16.2,18.1,8.8,10.9,1.9,4.1
	C1.4,3.7,1,3,0.2,3L3,0.2C3,1,3.7,1.4,4.1,1.9l1.4,1.4c1.8,1.8,6.5,6.6,8.3,8.5c3.7,3.8,7.5,7.5,11.2,11.2
	c3.7,3.8,7.4,7.5,11.2,11.2c1.9,1.8,6.7,6.6,8.5,8.3l1.4,1.4C46.6,44.3,47,45,47.8,45z"/>
<rect x="10.8" y="-3" transform="matrix(0.7071 -0.7071 0.7071 0.7071 -5.3006 12.7967)" class="st1" width="4" height="31.7"/>
<rect x="33.2" y="19.4" transform="matrix(0.7071 -0.7071 0.7071 0.7071 -14.5817 35.2033)" class="st1" width="4" height="31.7"/>
<rect x="-3" y="33.2" transform="matrix(0.7071 -0.7071 0.7071 0.7071 -21.1444 19.3594)" class="st1" width="31.7" height="4"/>
<path class="st0" d="M22.1,25.9c0.3,0.3,0.7,0.7,1,1c-6.3,6.2-12.9,12.9-19,19.2C3.7,46.6,3,47,3,47.8L0.2,45
	C1,45,1.4,44.3,1.9,43.9l1.4-1.4c1.8-1.8,6.6-6.5,8.5-8.3c3.1-3.1,6.2-6.2,9.3-9.4C21.4,25.2,21.8,25.5,22.1,25.9z"/>
<path class="st0" d="M47.8,3C47,3,46.6,3.7,46.1,4.1c-6.3,6.2-13,12.7-19.2,19c-0.3-0.3-0.7-0.7-1-1c-0.4-0.3-0.7-0.7-1.1-1
	c3.1-3.1,6.3-6.2,9.4-9.3c1.8-1.9,6.6-6.7,8.3-8.5l1.4-1.4C44.3,1.4,45,1,45,0.2L47.8,3z"/>
</svg>
