<?xml version="1.0" encoding="UTF-8"?><svg id="Capa_2" xmlns="http://www.w3.org/2000/svg" viewBox="0 0 894.68 152.24"><defs><style>.cls-1{fill:#f1e2d1;stroke-width:0px;}</style></defs><g id="Capa_2-2"><path class="cls-1" d="M36.74,88.71h34.41c31.73,0,48.85-24.57,48.85-47.69,0-10.58-3.58-20.25-10.08-27.24-7.34-7.89-18.04-12.06-30.95-12.06H13.65l-.24,2.6.94.03c3.67.1,6.25.5,7.78,2.2,1.4,1.55,1.93,4.23,1.64,8.2l-11.26,122.75c-.88,9.54-3.68,10.39-11.47,10.39H.24l-.24,2.63h42.39l.24-2.63h-.97c-3.84,0-6.52-.32-7.99-1.94-1.35-1.48-1.8-4.11-1.42-8.29l4.49-48.95ZM100.36,38.67c0,11.69-2.76,23.46-7.57,32.28-3.77,6.9-10.5,15.13-21.2,15.13h-34.61l6.53-71.16c1.07-9.82,5.43-10.57,11.48-10.57h24.26c15.58,0,21.11,18.49,21.11,34.32Z"/><path class="cls-1" d="M204.81,132.33L164.44,2.34l-.19-.62h-32.55l-.24,2.63h.97c10.69,0,11.72,2.24,13.98,7.16l.1.23-44.84,100.7h-.03c-.71,1.55-1.41,3.1-2.09,4.62-7.64,16.98-13.67,30.38-25.06,30.84l-.78.03-.24,2.6h48.14l.24-2.63h-.97c-10.02,0-16.26-2.12-19.1-6.5-5.62-8.67,1.55-26.31,13.14-52.22,4.31-4.86,15.67-5.88,30.43-2.73,14.45,3.09,27.34,9.38,28.72,14.03l11.15,37.2c1.22,3.8,1.26,6.3.12,7.86-1.15,1.58-3.67,2.35-7.69,2.35h-.81l-.24,2.63h43.83l.24-2.63h-.97c-6.11,0-10.98-2.65-14.92-15.56ZM117.53,83.18l30.38-67.94,22.57,73.89c.19.58.13.77.13.77-.65.54-4.93-.76-8.71-1.92-7.7-2.35-19.27-5.89-32.32-5.89-3.9,0-7.94.32-12.04,1.07Z"/><path class="cls-1" d="M293,4.35h.97c8.14,0,13.66,1.89,17.36,5.95,6.69,7.33,8.21,22.1,5.4,52.65l-3.17,34.61c-2.83,30.9-32.94,51.44-57.96,49.13-21.27-1.95-32.51-18.97-30.08-45.52l7.91-86.24c1.02-9.3,4.45-10.4,11.5-10.57l.79-.02.24-2.61h-42.93l-.24,2.63h.97c3.68,0,6.63.14,8.31,1.95,1.41,1.52,1.94,4.29,1.63,8.45l-8.23,89.7c-1.04,11.35,2.84,22.48,10.92,31.34,9.4,10.31,23.66,16.46,38.13,16.46,28.17,0,58.41-18.73,61.69-54.52l3.17-34.61c3.98-43.39,10.07-58.76,23.27-58.76h.81l.24-2.63h-50.47l-.24,2.63Z"/><path class="cls-1" d="M506.93,101.06l-.2.61c-12.41,37.55-28.06,45.53-49.29,46.22h-29.1c-3.92,0-6.64-.31-8.06-1.87-1.33-1.46-1.74-4.15-1.33-8.7l11.23-122.39c1.07-9.82,5.43-10.57,11.48-10.57h.81l.24-2.63h-42.39l-.24,2.6.94.03c3.63.1,6.2.51,7.75,2.23,1.41,1.56,1.96,4.24,1.67,8.17l-11.23,122.41c-.9,9.76-4.03,10.73-11.5,10.73h-.81l-.24,2.63h106.73l16.28-49.46h-2.76Z"/><path class="cls-1" d="M619.06,101.06l-.2.61c-13.16,39.82-36.24,45.62-54.85,46.22h-22.64c-3.48,0-6.09-.31-7.49-1.84-1.34-1.46-1.77-4.24-1.36-8.73l5.52-60.14h30.39c19.69,1.47,24.09,7.71,22.42,31.76l-.07.95h2.66l2.74-33.86,2.94-34.02h-2.67l-.07.8c-2.18,23.81-8.2,31.73-39.48,31.73h-18.62l5.47-59.62c1.07-9.82,5.43-10.57,11.48-10.57h26.23c24.71,0,33.56,25.43,36.63,46.76l.11.76h2.68l-7.13-50.15h-99.87l-.24,2.63h.97c3.62,0,6.17.33,7.71,1.99,1.44,1.55,1.99,4.31,1.69,8.41l-11.23,122.41c-.9,9.76-4.03,10.73-11.5,10.73h-.81l-.24,2.63h105.29l16.28-49.46h-2.76Z"/><path class="cls-1" d="M869.17,101.67c-12.41,37.55-28.06,45.53-49.29,46.22h-29.1c-3.92,0-6.64-.31-8.06-1.87-1.33-1.46-1.74-4.15-1.33-8.7l11.23-122.39c1.07-9.82,5.43-10.57,11.48-10.57h.81l.24-2.63h-42.39l-.24,2.6.94.03c3.63.1,6.2.51,7.75,2.23,1.41,1.56,1.96,4.24,1.67,8.17l-11.23,122.41c-.75,8.2-3.08,10.2-8.24,10.62-5.2-.6-9.45-3.95-12.97-15.45L700.09,2.34l-.19-.62h-32.55l-.24,2.63h.97c10.69,0,11.72,2.24,13.98,7.16l.1.23-44.84,100.7h-.03c-.71,1.55-1.41,3.1-2.09,4.62-7.64,16.98-13.67,30.38-25.06,30.84l-.78.03-.24,2.6h48.14l.24-2.63h-.97c-10.02,0-16.26-2.12-19.1-6.5-5.62-8.67,1.55-26.31,13.14-52.22,4.31-4.86,15.67-5.88,30.43-2.73,14.45,3.09,27.34,9.38,28.72,14.03l11.15,37.2c1.22,3.8,1.26,6.3.12,7.86-1.15,1.58-3.67,2.35-7.69,2.35h-.81l-.24,2.63h143.57l16.28-49.46h-2.76l-.2.61ZM653.18,83.18l30.38-67.94,22.57,73.89c.19.58.13.77.13.77-.65.54-4.93-.76-8.71-1.92-7.7-2.35-19.27-5.89-32.32-5.89-3.9,0-7.94.32-12.04,1.07Z"/><path class="cls-1" d="M890.02,1.86c-2.02-1.31-3.95-1.86-6.43-1.86-7.88,0-12.13,5.93-12.13,11.51,0,2.6.91,4.99,2.57,6.73,1.86,1.95,4.55,2.99,7.77,2.99s5.79-1,7.91-2.83c-3.24,8.35-12.51,17.66-25.09,21.24l-.58.17-.25,2.7,1.2-.29c15.36-3.75,27.63-17.8,29.45-28.57.88-5.17-.69-9.35-4.43-11.77Z"/><path class="cls-1" d="M653.18,83.18s-21.66,3.86-34.82,3.16c0,0,24.55,3.88,32.23,1.02"/><path class="cls-1" d="M117.62,83.14s-12.3,3.86-19.77,3.16c0,0,13.94,3.88,18.3,1.02"/></g></svg>