<?xml version="1.0" encoding="UTF-8"?><svg id="Capa_2" xmlns="http://www.w3.org/2000/svg" viewBox="0 0 81.13 112.12"><defs><style>.cls-1{fill:#f1e2d1;stroke-width:0px;}</style></defs><g id="Capa_2-2"><path class="cls-1" d="M49.45,52.75c-10.94-6.29-21.27-12.23-25.98-21.05-3.23-6.04-3.14-12.28.26-17.57,4.37-6.82,13.58-10.84,23.47-10.24h0c18.31.98,30.6,16.43,30.58,38.46v.74s2.25,0,2.25,0l-1.69-43.08h-2.06l-.2.41c-2.24,4.54-8.11,3.57-15.53,2.34-3.44-.57-7.33-1.21-11.28-1.35-13.66-.4-26.82,5.35-34.29,15.01-5.24,6.77-6.94,14.6-4.78,22.03,3.66,12.44,17.06,5.15,30.02,12.87,14.49,8.63,28.17,16.79,29.46,30.52.34,3.46.12,10.17-5.06,16.15-5.59,6.45-15.15,10.04-28.42,10.67-20.96.98-32.08-13.46-33.96-44.14l-.04-.7H0l1.64,48.29h2.03l.21-.38c3.17-5.65,8.85-4.45,16.72-2.78,4.66.99,9.93,2.11,15.6,1.89,25.42-.93,43-14.09,44.78-33.53,1.89-20.63-15.1-15.13-31.54-24.58Z"/></g></svg>