<?xml version="1.0" encoding="UTF-8"?><svg id="Capa_2" xmlns="http://www.w3.org/2000/svg" viewBox="0 0 109.94 109.94"><defs><style>.cls-1{fill:#353331;}.cls-1,.cls-2{stroke-width:0px;}.cls-2{fill:#f1e2d1;}</style></defs><g id="Capa_2-2"><path class="cls-1" d="M73.14,43.77c-2.77-1.85-5.12-4.2-6.97-6.97-3.71-5.57-7.99-12.79-11.2-20.56-3.21,7.77-7.49,15-11.2,20.56-1.85,2.77-4.2,5.12-6.98,6.97-5.56,3.71-12.78,7.99-20.56,11.2,7.78,3.21,15,7.49,20.56,11.2,2.78,1.85,5.13,4.2,6.98,6.98,3.71,5.56,7.99,12.78,11.2,20.56,3.21-7.78,7.49-15,11.2-20.56,1.85-2.78,4.2-5.13,6.97-6.98,5.56-3.71,12.79-7.99,20.56-11.2-7.77-3.21-15-7.49-20.56-11.2ZM70.65,62.43c-3.28,2.18-6.04,4.95-8.23,8.22-2.39,3.59-5.01,7.84-7.45,12.5-2.45-4.66-5.07-8.91-7.46-12.5-2.18-3.27-4.95-6.04-8.22-8.22-3.59-2.39-7.84-5.01-12.5-7.46,4.66-2.44,8.91-5.06,12.5-7.45,3.27-2.19,6.04-4.95,8.22-8.23,2.39-3.58,5.01-7.84,7.46-12.5,2.44,4.66,5.06,8.92,7.45,12.5,2.19,3.28,4.95,6.04,8.23,8.23,3.58,2.39,7.84,5.01,12.5,7.45-4.66,2.45-8.92,5.07-12.5,7.46Z"/><path class="cls-2" d="M75.64,40.03c-2.27-1.51-4.22-3.46-5.73-5.73-7.57-11.35-13.47-23.67-14.94-34.3-1.47,10.63-7.38,22.95-14.95,34.3-1.51,2.27-3.46,4.22-5.73,5.73-11.34,7.57-23.67,13.47-34.29,14.94,10.62,1.47,22.95,7.38,34.29,14.95,2.27,1.51,4.22,3.46,5.73,5.73,7.57,11.34,13.48,23.67,14.95,34.29,1.47-10.62,7.37-22.95,14.94-34.29,1.51-2.27,3.46-4.22,5.73-5.73,11.35-7.57,23.67-13.48,34.3-14.95-10.63-1.47-22.95-7.37-34.3-14.94ZM62.42,70.65c-2.39,3.59-5.01,7.84-7.45,12.5-2.45-4.66-5.07-8.91-7.46-12.5-2.18-3.27-4.95-6.04-8.22-8.22-3.59-2.39-7.84-5.01-12.5-7.46,4.66-2.44,8.91-5.06,12.5-7.45,3.27-2.19,6.04-4.95,8.22-8.23,2.39-3.58,5.01-7.84,7.46-12.5,2.44,4.66,5.06,8.92,7.45,12.5,2.19,3.28,4.95,6.04,8.23,8.23,3.58,2.39,7.84,5.01,12.5,7.45-4.66,2.45-8.92,5.07-12.5,7.46-3.28,2.18-6.04,4.95-8.23,8.22Z"/></g></svg>