<?xml version="1.0" encoding="UTF-8"?><svg id="Capa_2" xmlns="http://www.w3.org/2000/svg" viewBox="0 0 764.82 299.19"><defs><style>.cls-1{fill:#f1e2d1;stroke-width:0px;}</style></defs><g id="Capa_2-2"><path class="cls-1" d="M18,25.5c0-3-1-5.66-3-8-2-2.33-4.5-3.66-7.5-4v-1h27c2,0,3.83.84,5.5,2.5.66-.66,1.91-1.25,3.75-1.75,1.83-.5,4.25-.75,7.25-.75h3.5c5.66,0,10.75,1.5,15.25,4.5s7.91,7,10.25,12c1.66,3.34,2.5,6.67,2.5,10v40.5c-.67,6-2.34,10.84-5,14.5-2.67,3.67-6,6.5-10,8.5-3,1-6,1.84-9,2.5-3.67,1-7.67,1.17-12,.5-2-.66-3.34-1.16-4-1.5h-.5l-.5-.5v144.69c0,5,.5,9.25,1.5,12.75s4,5.25,9,5.25c-5.67,0-10.42,1.75-14.25,5.25-3.84,3.5-7.5,7.25-11,11.25s-7.34,7.75-11.5,11.25c-4.17,3.5-9.25,5.25-15.25,5.25,3,0,5.58-1.09,7.75-3.25,2.16-2.17,4-4.92,5.5-8.25,1.5-3.34,2.66-7.09,3.5-11.25.83-4.17,1.25-8.09,1.25-11.75V111c0-3.33-2.17-5-6.5-5,4.33,0,6.5-1.66,6.5-5V25.5ZM35.5,86.5c0,.34-.09.75-.25,1.25-.17.5-.09,1.09.25,1.75.66,3,2.66,5,6,6,.66,0,1.33.09,2,.25.66.17,1.33.25,2,.25h.5c3.66-.33,6.75-2,9.25-5s3.75-6.83,3.75-11.5V29c0-5.33-2.67-8.66-8-10-3.34-1-6.5-.5-9.5,1.5v59.5c.66,0,1.16.17,1.5.5.66.34,1.33,1.17,2,2.5-1-1-2.17-1.5-3.5-1.5-3.34-.66-5.34.67-6,4v1Z"/><path class="cls-1" d="M121.49,235.19c-7.67,0-14.17-2.58-19.5-7.75-5.34-5.16-8.17-11.58-8.5-19.25V64c.33-7.66,3.16-14,8.5-19,5.33-5,11.83-7.5,19.5-7.5h17c7.66,0,14.16,2.5,19.5,7.5,5.33,5,8.16,11.34,8.5,19v144.19c-.34,7.67-3.17,14.09-8.5,19.25-5.34,5.17-11.84,7.75-19.5,7.75h-17ZM116.99,208.19c0,9,1.66,14.34,5,16,3.33,1.67,6,2.5,8,2.5h5.5c2,0,3.75-.83,5.25-2.5,1.5-1.66,2.25-3.66,2.25-6V64c0-8.66-1.59-13.91-4.75-15.75-3.17-1.83-5.92-2.75-8.25-2.75s-5,.92-8,2.75c-3,1.84-4.67,7.09-5,15.75v144.19Z"/><path class="cls-1" d="M182.99,235.19h-10.5v-.5c3-.33,5.5-1.75,7.5-4.25s3-5.25,3-8.25V50.5c0-3.33-1-6.16-3-8.5-2-2.33-4.5-3.66-7.5-4v-.5h27c2.33,0,4.16.67,5.5,2,2-1.33,5.66-2,11-2h3.5c5.66,0,10.75,1.5,15.25,4.5s7.91,6.84,10.25,11.5c1.66,3.34,2.5,6.84,2.5,10.5v40.5c-1.34,10.67-6.17,18.17-14.5,22.5h-.5c-.34.34-.67.5-1,.5s-.67.17-1,.5c6.33,1.67,11.83,4.59,16.5,8.75,4.66,4.17,7,10.09,7,17.75v79.19c0,3.66.41,7.58,1.25,11.75.83,4.16,2,7.91,3.5,11.25,1.5,3.33,3.33,6.08,5.5,8.25s4.75,3.25,7.75,3.25c-6,0-11-1.75-15-5.25s-7.84-7.25-11.5-11.25c-3.67-4-7.42-7.75-11.25-11.25-3.84-3.5-8.59-5.25-14.25-5.25,4.66,0,7.58-1.33,8.75-4,1.16-2.66,1.75-6.16,1.75-10.5v-62.69c0-6.33-.84-11.33-2.5-15-1.67-3.66-3.67-6.41-6-8.25-2.34-1.83-4.5-3-6.5-3.5s-3.34-.75-4-.75h-5v91.69c0,3,1.08,5.75,3.25,8.25,2.16,2.5,4.58,3.92,7.25,4.25v.5h-34ZM200.49,111.5c0,.34-.09.67-.25,1-.17.34-.09.84.25,1.5.33,3,2.33,5,6,6,1,.34,2.33.5,4,.5h.5c3.66,0,6.75-1.58,9.25-4.75,2.5-3.16,3.75-7.08,3.75-11.75v-50.5c0-5.33-2.67-8.66-8-10-3.34-.66-6.5-.16-9.5,1.5v59.5c.33.34.83.5,1.5.5,1,1,1.66,2,2,3-.34-1.33-1.5-2-3.5-2-1.34,0-2.59.34-3.75,1-1.17.67-1.92,1.84-2.25,3.5v1Z"/><path class="cls-1" d="M251.99,37h111.5v1c-4,.67-7,2.59-9,5.75-2,3.17-3.84,7.09-5.5,11.75l-18,44.5c1.66-4,3.25-9.08,4.75-15.25,1.5-6.16,2.16-12.16,2-18-.17-5.83-1.5-10.91-4-15.25-2.5-4.33-6.92-6.83-13.25-7.5h-1v178.19c0,3,1,5.75,3,8.25s4.5,3.92,7.5,4.25v.5h-44.5v-.5c2.66-.33,5.08-1.75,7.25-4.25,2.16-2.5,3.25-5.25,3.25-8.25V44c-6.67.34-11.34,2.59-14,6.75-2.67,4.17-4.09,9.25-4.25,15.25-.17,6,.5,12.09,2,18.25,1.5,6.17,3.08,11.42,4.75,15.75l-18-44.5c-1.67-4.66-3.5-8.58-5.5-11.75-2-3.16-5-5.08-9-5.75v-1Z"/><path class="cls-1" d="M373.84,37h89.5v1c-3.67.67-6.5,2.59-8.5,5.75-2,3.17-4,7.09-6,11.75l-17.5,44.5c1.66-4,3.25-9.08,4.75-15.25,1.5-6.16,2.16-12.16,2-18-.17-5.83-1.5-10.91-4-15.25-2.5-4.33-6.92-6.83-13.25-7.5h-13v56.5c.33.34.83.5,1.5.5v.5c0,.34.16.5.5.5s.58.09.75.25c.16.17.58.25,1.25.25,1.33.67,2.16,1.17,2.5,1.5,7.66,3.34,13.83,3.67,18.5,1l2.5-2.5,1-1c1-1.33,1.5-2.83,1.5-4.5v-2l.5-.5v2.5c0,1.67-.5,3.5-1.5,5.5-.34.34-.5.67-.5,1l-.5.5v.5c-.34,0-.5.17-.5.5-.67,1-1.84,2.34-3.5,4-.34.34-1.17.84-2.5,1.5-.67.67-1.25,1.09-1.75,1.25-.5.17-1.09.42-1.75.75-1.34.67-2.5,1-3.5,1-2.67,1-5.67,1.17-9,.5-2-.33-3.84-1-5.5-2v26.5-16.81,100.5c0,3,1.08,5.75,3.25,8.25,2.16,2.5,4.58,3.92,7.25,4.25v.5h-44.5v-.5c3-.33,5.5-1.75,7.5-4.25s3-5.25,3-8.25v-116.69c-1.34,0-2.5.5-3.5,1.5l-1.75,1.75-1.75,1.75c0,.34-.09.5-.25.5s-.25.17-.25.5c-.67,2-1,3.34-1,4v1.5h-.5v-1.5c0-1,.16-2,.5-3,.66-2,1.33-3.5,2-4.5v-.5c1.33-2.33,2.66-3.83,4-4.5.66-.33,1.08-.66,1.25-1,.16-.33.58-.66,1.25-1v-51c0-3-1-5.66-3-8-2-2.33-4.5-3.66-7.5-4v-1Z"/><path class="cls-1" d="M489.33,235.19c-7.67,0-14.17-2.58-19.5-7.75-5.34-5.16-8.17-11.58-8.5-19.25V64c.33-7.66,3.16-14,8.5-19,5.33-5,11.83-7.5,19.5-7.5h17c7.66,0,14.16,2.5,19.5,7.5,5.33,5,8.16,11.34,8.5,19v144.19c-.34,7.67-3.17,14.09-8.5,19.25-5.34,5.17-11.84,7.75-19.5,7.75h-17ZM484.83,208.19c0,9,1.66,14.34,5,16,3.33,1.67,6,2.5,8,2.5h5.5c2,0,3.75-.83,5.25-2.5,1.5-1.66,2.25-3.66,2.25-6V64c0-8.66-1.59-13.91-4.75-15.75-3.17-1.83-5.92-2.75-8.25-2.75s-5,.92-8,2.75c-3,1.84-4.67,7.09-5,15.75v144.19Z"/><path class="cls-1" d="M550.83,235.19h-10.5v-.5c3-.33,5.5-1.75,7.5-4.25s3-5.25,3-8.25V50c0-3-1-5.66-3-8-2-2.33-4.5-3.66-7.5-4v-1h44.5v1c-2.67.34-5.09,1.67-7.25,4-2.17,2.34-3.25,5-3.25,8v164.19c0,4.67,1.5,8.75,4.5,12.25s6.83,5.42,11.5,5.75h2.5c5.66,0,10.25-2,13.75-6s5.08-9.5,4.75-16.5l-1-21.5c-.34-3.66-.59-7.75-.75-12.25-.17-4.5-.59-9.41-1.25-14.75l-2-25-2.5-26,19,78,6.5,28c1.33,4.67,2.83,9,4.5,13,1.66,4,4.83,6,9.5,6h-92.5Z"/><path class="cls-1" d="M670.33,210.69v11.5c0,3,1.08,5.75,3.25,8.25,2.16,2.5,4.58,3.92,7.25,4.25v.5h-44.5v-.5c3-.33,5.5-1.75,7.5-4.25s3-5.25,3-8.25V50c0-3-1-5.66-3-8-2-2.33-4.5-3.66-7.5-4v-.5h44.5v.5c-2.67.34-5.09,1.67-7.25,4-2.17,2.34-3.25,5-3.25,8v160.69ZM658.83,25.5c-2.34-3.66-4.17-6.16-5.5-7.5-1.34-1.33-3.84-3.16-7.5-5.5,3.66-2,6.16-3.66,7.5-5s3.16-3.83,5.5-7.5c2,3.67,3.66,6.17,5,7.5,1.33,1.34,3.83,3,7.5,5-3.67,2.34-6.17,4.17-7.5,5.5s-3,3.84-5,7.5Z"/><path class="cls-1" d="M719.82,235.19c-7.67,0-14.17-2.58-19.5-7.75-5.34-5.16-8.17-11.58-8.5-19.25V64c.33-7.66,3.16-14,8.5-19,5.33-5,11.83-7.5,19.5-7.5h17c7.66,0,14.16,2.5,19.5,7.5,5.33,5,8.16,11.34,8.5,19v144.19c-.34,7.67-3.17,14.09-8.5,19.25-5.34,5.17-11.84,7.75-19.5,7.75h-17ZM715.32,208.19c0,9,1.66,14.34,5,16,3.33,1.67,6,2.5,8,2.5h5.5c2,0,3.75-.83,5.25-2.5,1.5-1.66,2.25-3.66,2.25-6V64c0-8.66-1.59-13.91-4.75-15.75-3.17-1.83-5.92-2.75-8.25-2.75s-5,.92-8,2.75c-3,1.84-4.67,7.09-5,15.75v144.19Z"/></g></svg>